<mxfile host="app.diagrams.net" modified="2024-04-17T07:59:06.021Z" agent="Mozilla/5.0 (Windows NT 10.0; Win64; x64) AppleWebKit/537.36 (KHTML, like Gecko) Chrome/115.0.0.0 Safari/537.36 Edg/115.0.1901.188" version="24.2.5" etag="o1KoDT1lBMRNMm2ql6W4" type="github">
  <diagram name="Page-1" id="2DlGIpOtHJQ2WQtmnYyD">
    <mxGraphModel>
      <root>
        <mxCell id="0" />
        <mxCell id="1" parent="0" />
      </root>
    </mxGraphModel>
  </diagram>
</mxfile>
